<?xml version="1.0" encoding="UTF-8" standalone="no"?>
<!DOCTYPE svg PUBLIC "-//W3C//DTD SVG 1.1//EN" "http://www.w3.org/Graphics/SVG/1.1/DTD/svg11.dtd">
 <svg xmlns="http://www.w3.org/2000/svg" xmlns:xlink="http://www.w3.org/1999/xlink" width="162.8" height="410"><path fill="black" d="M57.20 251.20L29.40 299.40L10.20 286.40L46.60 239.20Q59.60 250 76.80 250L76.80 250Q86.60 250 95.10 246.40Q103.60 242.80 110 236.40L110 236.40L87 216L78.20 227L60 211.80L74.20 194Q80 186.40 93.60 186.40L93.60 186.40Q97.80 186.40 109.20 188.20L109.20 188.20L92.60 209L116.80 228Q124.20 216.20 124.20 202.60L124.20 202.60Q124.20 189.60 117.70 178.90Q111.20 168.20 100.40 161.70Q89.60 155.20 76.80 155.20L76.80 155.20Q64.20 155.20 53.20 161.60L53.20 161.60Q68.80 148.80 88.60 148.80L88.60 148.80Q100.20 148.80 110.30 153.10Q120.40 157.40 128.10 165.10Q135.80 172.80 140.20 183Q144.60 193.20 144.60 204.80L144.60 204.80Q144.60 224.40 132.20 239.80L132.20 239.80L152.60 255.60L144 266L123.80 248.40Q108.40 260.80 88.60 260.80L88.60 260.80Q71.40 260.80 57.20 251.20L57.20 251.20Z"/></svg>